<svg width="1024" height="1024" viewBox="0 0 1024 1024" xmlns="http://www.w3.org/2000/svg" style="display:block" preserveAspectRatio="xMidYMid meet"><svg x="431" y="456" width="443" height="90" xmlns="http://www.w3.org/2000/svg" style="display:block" preserveAspectRatio="none"><svg version="1.1" xmlns="http://www.w3.org/2000/svg" style="display: block;" width="443" height="90" viewBox="392.84 83.25 1262.29 256.45" preserveAspectRatio="none"><g id="svg-group-ac75b15d-f61d-4940-80b4-316db14c3c06">
<path transform="translate(0,0)" fill="rgb(254,254,254)" d="M 1148.11 83.255 C 1156.52 83.4427 1160.59 85.2916 1168.14 88.4888 C 1168.69 97.9188 1168.86 169.56 1171.87 172.585 C 1172.71 172.32 1175.01 171.492 1175.64 171.047 C 1191.58 159.358 1202.81 153.151 1223.11 152.489 C 1297.93 150.051 1313.83 268.461 1271.26 311.176 C 1270.79 311.668 1270.3 312.145 1269.8 312.608 C 1246.09 334.316 1214.97 339.702 1186.19 324.517 C 1181.12 321.846 1175.36 315.513 1170.57 315.311 C 1168.56 317.096 1168.23 323.085 1167.53 326.458 C 1162.04 328.046 1141.96 327.217 1135.03 327.13 C 1133.97 247.828 1134.98 166.107 1134.97 86.6077 C 1139.37 85.5725 1143.75 84.4547 1148.11 83.255 z M 1220.41 299.826 C 1253.29 293.624 1262.08 254.629 1256.06 226.473 C 1250.29 199.516 1236.81 185.884 1209.05 187.176 C 1198.25 189.492 1186.32 194.766 1181.04 204.832 C 1160.66 243.672 1167.16 300.363 1220.41 299.826 z"/>
<path transform="translate(0,0)" fill="rgb(254,254,254)" d="M 1383.56 153.228 C 1408 150.829 1433.44 156.313 1451.44 173.977 C 1484.43 206.348 1485.05 276.055 1452.7 309.022 C 1442.51 319.395 1421.29 332.698 1406.25 332.847 C 1382.93 333.071 1362.38 332.369 1342.94 317.833 C 1303.81 288.573 1301.04 221.366 1327.38 183.131 C 1340.56 163.992 1362.32 156.813 1383.56 153.228 z M 1403.64 299.648 C 1448.14 288.598 1449.85 213.136 1414.84 190.86 C 1405.32 184.802 1392.16 185.237 1381.38 186.237 C 1323.96 205.858 1342.79 315.956 1403.64 299.648 z"/>
<path transform="translate(0,0)" fill="rgb(254,254,254)" d="M 730.487 153.208 C 776.774 148.872 813.478 170.35 823.333 217.709 C 833.938 268.673 814.142 320.197 759.719 332.816 C 731.049 332.832 719.919 335.636 693.47 317.712 C 674.551 304.32 665.231 284.395 662.165 261.897 C 655.207 210.835 676.265 161.966 730.487 153.208 z M 756.833 298.724 C 770.167 293.546 777.56 286.094 783.395 272.839 C 791.347 254.877 791.821 234.488 784.712 216.176 C 773.673 187.891 758.026 184.476 730.256 186.154 C 725.78 187.86 721.511 189.383 717.717 192.447 C 679.951 222.948 696.326 317.835 756.833 298.724 z"/>
<path transform="translate(0,0)" fill="rgb(254,254,254)" d="M 620.648 157.933 L 653.767 158.019 C 651.852 167.693 649.578 177.293 646.95 186.798 C 645.041 192.881 643.291 199.133 641.777 205.327 C 631.835 245.998 619.032 286.439 609.179 327.06 L 567.769 327.091 C 558.988 312.023 541.529 221.256 532.85 215.444 L 531.739 215.957 C 528.608 222.477 527.78 229.803 525.567 236.574 C 515.817 266.396 509.586 297.053 500.382 327.115 L 456.693 327.148 C 453.828 317.222 451.493 305.789 448.693 295.487 L 421.764 198.011 C 419.448 189.68 413.36 163.193 409.668 158.028 L 446.464 158.011 C 449.521 165.916 454.47 187.678 456.797 197.383 C 464.215 228.321 470.099 254.058 480.235 284.336 C 490.126 271.393 508.009 182.936 516.896 157.979 L 551.258 158.003 C 555.533 173.308 581.612 275.639 587.545 279.933 L 589.073 279.203 C 592.474 274.615 619.442 167.924 620.648 157.933 z"/>
<path transform="translate(0,0)" fill="rgb(254,254,254)" d="M 968.727 87.1577 L 1001.93 87.2582 C 1001.94 104.405 1000.11 215.703 1003.64 221.623 C 1003.86 222.002 1005.14 222.173 1005.6 222.295 C 1009.8 219.568 1024.35 204.404 1028.35 200.11 C 1041.96 185.513 1055.25 171.989 1069.44 157.981 L 1110.51 158.067 C 1102.54 165.693 1093.06 177.222 1085.38 185.636 C 1071.46 200.644 1057.28 215.402 1042.84 229.903 C 1058.97 253.007 1073.97 272.173 1091.28 294.456 C 1095.58 301.754 1110.03 319.698 1115.64 327.083 L 1071.71 327.159 C 1054.89 309.723 1034.99 272.352 1015.75 252.885 L 1001.95 266.708 L 1001.95 327.152 L 967.172 327.142 C 966.844 311.158 967.167 295.41 967.73 279.447 C 969.982 215.513 967.068 151.079 968.727 87.1577 z"/>
<path transform="translate(0,0)" fill="rgb(254,254,254)" d="M 1597.94 157.975 L 1635.6 158.05 L 1600.21 209.05 C 1592.95 219.592 1586.03 230.548 1578.2 240.643 C 1595.83 266.735 1613.9 292.032 1632.38 317.51 C 1634.5 320.445 1636.71 323.053 1638.3 326.355 L 1637.03 327.107 L 1597.3 327.049 C 1586.9 316.634 1569.58 283.669 1557.03 269.262 C 1548.51 276.967 1525.7 315.161 1516.11 327.133 L 1475.35 327.062 C 1494.08 302.349 1516.9 267.82 1534.42 241.933 C 1530.26 232.97 1515.63 212.692 1509.09 203.849 C 1497.08 187.616 1488.82 175.38 1478.25 158.039 C 1492.22 157.861 1506.58 158.046 1520.59 158.058 C 1526.73 166.427 1550.54 208.614 1557.48 211.213 C 1559.87 210.756 1560.78 210.721 1562.38 208.604 C 1574.46 192.696 1584.68 172.783 1597.94 157.975 z"/>
<path transform="translate(0,0)" fill="rgb(254,254,254)" d="M 942.642 153.56 C 943.571 153.148 943.435 153.335 944.676 153.634 C 947.464 158.635 946.243 181.625 946.139 188.34 C 928.009 188.413 913.391 189.053 899.703 202.622 C 891.155 211.096 887.716 222.015 886.851 233.687 C 884.546 264.787 885.196 295.999 885.276 327.152 L 852.018 327.129 L 851.957 309.336 L 851.975 156.746 L 885.174 156.79 C 885.154 158.236 885.146 159.683 885.15 161.129 C 885.166 166.673 884.64 174.622 888.516 178.476 C 893.079 178.036 903.018 162.502 915.592 158.372 C 928.865 154.014 926.971 154.142 942.642 153.56 z"/>
</g></svg></svg><svg x="149" y="384" width="229" height="258" xmlns="http://www.w3.org/2000/svg" style="display:block" preserveAspectRatio="none"><svg version="1.1" xmlns="http://www.w3.org/2000/svg" style="display: block;" width="229" height="258" viewBox="-0.40 0.00 1817.80 2048.00" preserveAspectRatio="none"><g id="svg-group-81d9d96e-ee1f-4288-83a9-f2cc8646ad61">
<path transform="translate(0,0)" fill="rgba(255, 255, 254, 1)" d="M 885.426 0 L 888.764 0 L 889.54 0.923353 C 894.863 7.14833 895.158 6.6915 903.136 7.51604 C 917.231 8.97755 934.146 5.70633 947.914 8.71453 C 998.597 19.8381 1050.62 47.0963 1085.67 85.6753 C 1091.89 92.5203 1098.26 103.368 1101.9 111.884 C 1107.13 124.122 1116.69 138.658 1120.77 150.968 C 1136.75 199.088 1144.3 246.477 1124.03 294.518 C 1145.85 319.818 1170.68 327.119 1198.35 342.983 L 1319.5 411.872 C 1336.01 421.371 1418.7 472.413 1428.08 473.883 C 1436.73 470.875 1465.39 445.26 1477.72 437.718 C 1541.28 398.832 1623.21 395.147 1691.7 422.977 C 1701.54 426.972 1711.11 435.131 1719.99 440.86 C 1756.7 465.723 1786.95 499.985 1802.28 541.914 C 1806.52 553.512 1809.71 570.473 1817 579.797 L 1817 669.914 C 1809.81 676.43 1809.47 686.989 1805.95 695.843 C 1802.34 704.711 1799.04 713.858 1795.25 722.652 C 1792.2 729.758 1789.42 740.715 1785.62 747.182 C 1775.05 765.178 1757.53 788.047 1740.63 800.312 C 1725.2 811.508 1710.54 823.348 1693.35 831.082 C 1672.81 839.799 1651.38 841.41 1634.15 856.768 L 1634.12 1088.58 L 1634.13 1157.64 C 1634.14 1164.9 1632.71 1202.49 1637.92 1207.59 C 1643.95 1213.47 1666.14 1217.58 1674.41 1221.22 C 1705.4 1234.19 1736.89 1255.56 1760.57 1279.33 C 1774.35 1293.17 1791.27 1322.7 1799.16 1340.68 C 1804.92 1353.8 1807.34 1376.31 1817 1386.77 L 1817 1473.56 C 1809.77 1479.14 1809.48 1491.55 1806.93 1500.18 C 1777.21 1601.08 1674.84 1666.91 1570.43 1653.58 C 1532.27 1648.71 1491.59 1634.48 1459.86 1612.4 C 1447.61 1603.64 1436.62 1594.25 1424.79 1585.66 C 1389.62 1602.55 1354.35 1626.9 1319.9 1645.83 C 1272.64 1671.18 1225.58 1696.93 1178.74 1723.07 C 1164.03 1731.47 1136.76 1745.89 1124.77 1756.02 L 1124.82 1757.6 C 1125.55 1776.63 1132.62 1795.4 1133.18 1814.28 C 1135.98 1908.88 1087.93 1996.13 997.039 2030.14 C 984.444 2034.85 969.567 2039.67 959.394 2048 L 865.406 2048 C 858.81 2041.66 830.491 2033.73 819.593 2029.3 C 731.095 1993.32 683.83 1909.91 684.319 1816.44 C 684.416 1797.9 690.396 1776.19 692.333 1757.24 C 673.021 1728.91 604.905 1701.75 573.371 1684.53 C 529.32 1660.48 486.246 1634.76 443.06 1609.09 C 429.094 1600.79 417.323 1591.48 402.22 1585.07 C 387.422 1598.01 358.799 1621.18 341.498 1629.99 C 304.473 1647.82 264.413 1658.46 223.135 1656.77 C 167.132 1654.72 112.251 1632.42 72.0405 1592.91 C 56.7439 1577.88 30.5058 1542.86 22.564 1522.87 C 13.9779 1501.26 16.5471 1467.19 0.798501 1449.23 L 0 1448.34 L 0 1423.01 C 16.3121 1402.66 9.47628 1397.49 13.0727 1374.53 C 14.3664 1366.28 21.0238 1350.33 24.5554 1342.04 C 50.3608 1281.47 91.4415 1246.84 151.492 1220.92 C 162.31 1216.25 172.932 1212.74 183.855 1208.42 C 181.76 1189.19 183.54 1171.27 184.511 1152.08 C 187.688 1084.15 186.981 1015.95 186.528 947.947 C 186.353 921.626 180.144 893.631 183.095 866.486 C 183.43 863.397 183.13 853.189 180.911 851.253 C 171.205 842.782 156.377 841.181 144.859 835.819 C 111.186 820.919 82.7404 803.101 58.3022 775.397 C 32.865 746.56 19.9005 722.952 14.5932 684.608 C 12.3397 668.328 11.2454 654.084 0 641.01 L 0 623.292 C 18.9595 601.369 7.30598 592.58 13.9382 570.98 C 25.2186 534.242 48.712 491.62 77.1753 465.393 C 122.575 424.347 182.354 402.903 243.492 405.731 C 301.018 408.578 357.565 431.453 396.714 474.513 C 416.634 467.579 428.833 455.306 446.535 445.694 C 481.981 426.446 517.238 401.536 552.981 383.537 C 597.439 361.149 638.832 335.688 682.53 312.024 C 687.399 309.387 692.852 303.64 696.667 299.713 C 693.501 273.183 686.851 259.917 687.803 229.371 C 689.406 137.738 742.767 58.8738 827.268 23.3893 C 838.869 18.5176 879.515 6.3396 885.426 0 z M 452.479 551.131 C 452.339 575.751 459.716 600.051 460.626 625.73 C 461.579 652.606 454.19 673.405 452.547 697.631 C 481.802 715.04 511.167 733.07 540.417 750.322 C 574.639 770.507 612.52 786.62 646.584 807.576 C 670.489 821.626 693.826 837.209 718.365 850.542 C 726.513 854.97 735.775 861.079 744.088 864.907 C 759.159 856.855 775.171 841.277 791.03 831.696 C 846.34 798.819 912.685 789.976 974.675 807.22 C 1016.89 818.937 1043.03 837.542 1077.35 863.391 C 1079.86 865.285 1083.49 864.075 1086.26 863.259 C 1119.2 849.573 1148.51 827.884 1179.27 810.634 C 1232.42 780.828 1286.36 752.852 1338.66 721.486 C 1349.48 715.001 1361.96 706.175 1373.33 701.503 C 1368.24 680.103 1363.47 658.376 1361.19 636.477 C 1358.15 607.318 1370.29 580.366 1368.4 551.057 C 1357.49 539.204 1344 532.318 1329.96 524.672 C 1252.92 482.704 1177.51 438.059 1100.96 395.275 C 1095.55 392.249 1086.46 388.921 1080.3 388.41 C 1070.11 391.602 1063.52 403.152 1055.44 409.074 C 1013.5 439.812 968.891 457.735 916.456 457.284 C 877.849 456.951 846.033 453.835 811.013 434.954 C 790.212 424.478 772.381 411.413 755.494 395.208 C 751.227 391.112 746.611 384.841 741.312 384.826 C 728.332 390.414 704.526 405.018 691.247 412.623 L 599.238 465.27 C 569.494 482.272 540.201 498.462 510.192 514.952 C 492.847 524.484 467.553 538.859 452.479 551.131 z M 1136.06 948.897 C 1136.07 965.337 1140.79 979.174 1142.96 995.031 C 1146.27 1021.27 1147.05 1049.29 1141.39 1075.24 C 1140.3 1080.23 1133.83 1104.3 1138.55 1107.36 C 1194.99 1143.97 1256.95 1171.34 1313.41 1208.3 C 1342.74 1226.57 1374.04 1242.29 1403.18 1261.04 C 1407.83 1264.04 1413.76 1267.75 1418.62 1270.28 C 1437.9 1264.27 1450.01 1247.39 1465.81 1238.84 C 1485.52 1228.19 1519.33 1211.92 1540.15 1204.84 C 1538.95 1184.89 1538.77 1161.97 1539.68 1141.95 C 1540.4 1126.1 1542.69 1111.25 1542.84 1095.05 C 1543.97 1015.42 1542.65 935.783 1538.88 856.238 C 1500.62 839.969 1465.19 825.374 1433.52 798.164 C 1428.57 793.916 1424.49 789.588 1417.75 790.159 C 1396.97 794.371 1301.53 854.246 1278.68 867.141 C 1250.36 882.842 1221.96 898.401 1193.49 913.818 C 1174 924.523 1153.51 934.751 1136.06 948.897 z M 738.646 1672.28 C 763.311 1651.38 777.5 1632.49 809.249 1617.45 C 827.073 1609.01 847.524 1602.7 864.235 1594.1 C 862.401 1562 863.192 1525.13 863.204 1492.69 L 863.282 1331.79 C 863.281 1309.77 864.027 1282.04 863.027 1260.33 C 842.512 1251.98 820.09 1245.68 800.736 1235.07 C 783.348 1225.55 767.061 1213.6 752.196 1200.55 C 748.134 1196.93 744.025 1193.35 738.535 1192.18 C 727.687 1195.13 714.072 1204.3 703.913 1209.82 C 670.257 1228.1 638.601 1249.98 604.933 1268.15 C 593.424 1274.36 581.819 1280.34 570.375 1286.63 C 543.766 1301.34 517.434 1316.54 491.395 1332.23 C 479.453 1339.39 461.614 1348.41 452.414 1358.49 L 452.432 1359.7 C 452.922 1382.92 461.795 1403.85 461.177 1433.68 C 460.662 1458.5 451.875 1486.14 452.382 1504.65 C 470.238 1523.89 524.749 1549.66 548.848 1563.63 C 575.392 1579.02 604.873 1595.66 631.978 1610.13 C 656.656 1623.66 678.832 1640.02 703.866 1652.65 C 715.769 1658.66 726.961 1666.46 738.646 1672.28 z M 403.108 785.95 C 392.044 791.49 369.792 811.648 356.221 820.408 C 341.507 829.928 325.764 837.754 309.291 843.735 C 299.771 847.16 287.415 850.633 278.451 854.328 C 277.054 898.236 280.364 944.435 276.327 988.003 C 272.198 1032.57 274.999 1074.76 278.089 1119.16 C 279.371 1147.54 277.169 1176.96 278.478 1205.68 C 317.933 1218.78 354.225 1232.85 386.242 1259.75 C 390.101 1263 395.396 1268.05 399.4 1270.77 C 422.907 1265.33 488.474 1222.97 511.568 1209.4 C 539.632 1192.45 571.924 1175.27 600.619 1158.68 C 633.747 1139.52 658.267 1127.81 689.04 1104.14 C 683.506 1081.66 676.758 1055.74 677.624 1032.47 C 678.21 1016.73 679.981 999.592 682.715 984.104 C 684.427 974.404 686.983 964.73 688.235 954.968 C 688.483 953.031 689.358 947.89 688.435 946.339 C 686.139 942.48 670.477 933.237 665.88 930.437 C 631.829 909.698 595.539 892.412 560.757 872.913 C 534.587 858.242 423.779 787.822 403.521 785.997 C 403.383 785.985 403.246 785.966 403.108 785.95 z M 1086.28 1191.79 C 1068.15 1205.46 1050.63 1220.17 1030.92 1231.59 C 1008.67 1244.48 982.432 1253.29 958.06 1261.41 L 957.928 1483.18 L 958.022 1553.56 C 958.05 1566.36 957.707 1582.39 958.599 1595.07 C 980.963 1607.2 1007.83 1612.48 1029.73 1627 C 1047.36 1638.69 1060.62 1653.24 1077.1 1665.95 C 1085.45 1672.07 1109.29 1656.48 1117.25 1652.68 C 1145.2 1638.81 1170.88 1620.36 1198.33 1605.99 C 1220.33 1594.55 1240.26 1582.78 1261.81 1570.73 L 1373.42 1508.26 C 1363.44 1469.15 1355.62 1441.12 1362.79 1399.14 C 1364.93 1386.61 1371.94 1364.72 1372.82 1354.29 C 1356.21 1342.33 1338.96 1333.11 1321.22 1322.97 C 1254.79 1284.97 1187.07 1250.3 1121.81 1210.15 C 1113.99 1205.33 1093.46 1191.77 1086.28 1191.79 z"/>
</g></svg></svg></svg>