<svg width="1024" height="1024" viewBox="0 0 1024 1024" xmlns="http://www.w3.org/2000/svg" style="display:block" preserveAspectRatio="xMidYMid meet"><svg x="427" y="455" width="451" height="92" xmlns="http://www.w3.org/2000/svg" style="display:block" preserveAspectRatio="none"><svg version="1.1" xmlns="http://www.w3.org/2000/svg" style="display: block;" width="451" height="92" viewBox="388.56 77.85 1271.43 259.36" preserveAspectRatio="none"><g id="svg-group-776bab13-cf75-41f3-ba3d-956ddc51171a">
<path transform="translate(0,0)" fill="rgb(0,0,0)" d="M 1138.09 81.2468 C 1145.08 81.0427 1169 77.852 1171.24 85.7667 C 1175.04 99.1365 1168.32 162.6 1174.65 171.055 C 1175.44 170.944 1188.4 160.397 1191.42 158.597 C 1198.11 154.529 1205.5 151.762 1213.21 150.442 C 1285.61 138.163 1312.98 221.662 1294.73 278.162 C 1290.66 290.762 1285.41 298.8 1277.89 309.341 C 1262.45 327.452 1233.85 337.213 1210.63 332.748 C 1194.5 329.646 1183.89 322.822 1171.16 313.265 L 1170.81 328.612 L 1136.31 328.58 L 1136.22 165.263 C 1136.21 139.028 1136.03 112.091 1136.39 85.8034 C 1136.42 84.1457 1137.11 82.584 1138.09 81.2468 z M 1227.03 299.981 C 1259.74 289.97 1264.73 256.714 1260.51 226.792 C 1258.2 210.445 1249.89 195.744 1235.05 187.43 C 1226.05 182.391 1217.89 183.5 1207.94 184.331 C 1196 188.054 1185.01 198.633 1179.58 209.533 C 1171.96 224.836 1170.16 252.255 1175.72 268.314 C 1184.89 294.807 1201.72 300.911 1227.03 299.981 z"/>
<path transform="translate(0,0)" fill="rgb(0,0,0)" d="M 1398.34 149.464 C 1398.8 149.265 1399.55 148.994 1400.05 149.013 C 1422.98 149.892 1443.5 154.769 1459.71 171.667 C 1478.55 191.3 1484.31 216.59 1484.21 242.834 C 1484.11 268.182 1476.25 293.372 1458.12 311.485 C 1443.98 325.6 1422.63 334.299 1402.67 334.061 C 1349.38 335.119 1316.09 298.638 1313.84 246.688 C 1311.46 191.668 1341.76 151.516 1398.34 149.464 z M 1404.94 300.192 C 1455.17 294.654 1456.81 218.116 1425.08 191.078 C 1418.71 185.644 1404.23 181.067 1395.98 183.36 C 1382.36 184.482 1373.25 188.407 1364.4 199.009 C 1345.48 221.67 1346.46 271.302 1369.9 290.814 C 1381.3 300.307 1391.03 300.48 1404.94 300.192 z"/>
<path transform="translate(0,0)" fill="rgb(0,0,0)" d="M 722.52 150.292 C 737.596 146.982 763.827 151.143 777.791 157.484 C 838.342 184.979 838.771 288.211 784.66 321.973 C 775.363 327.774 767.081 330.09 756.977 333.653 C 733.045 335.516 711.481 334.559 690.883 320.611 C 671.91 307.549 660.143 287.782 656.319 265.138 C 647.624 213.634 667.187 160.762 722.52 150.292 z M 742.393 301.46 C 806.911 293.707 796.905 178.425 736.552 182.413 C 723.424 183.592 713.784 186.809 705.335 197.369 C 686.253 221.222 686.648 271.818 711.168 292.149 C 721.107 300.39 730.185 301.564 742.393 301.46 z"/>
<path transform="translate(0,0)" fill="rgb(0,0,0)" d="M 507.771 154.025 L 545.046 154.019 C 545.209 154.981 545.4 155.938 545.616 156.889 C 548.399 169.046 576.421 277.342 581.402 280.476 C 584.691 275.787 610.611 168.662 614.396 154.031 L 649.018 154.049 C 646.391 162.649 644.895 169.486 643.046 178.224 C 634.33 212.808 625.368 247.331 616.163 281.788 C 612.55 295.26 605.823 315.947 603.251 328.611 L 558.581 328.625 L 538.281 254.685 C 536.258 247.249 529.696 221.287 526.273 215.331 L 524.891 215.884 C 519.732 223.435 515.988 244.277 513.177 253.83 C 506.422 276.786 500.939 306.399 492.569 328.59 C 477.752 328.459 462.532 328.727 447.683 328.812 C 442.249 303.776 431.942 270.888 424.949 245.345 C 417.141 216.824 408.75 181.938 399.758 154.289 C 410.305 153.527 426.431 154.016 437.389 154.026 C 441.051 160.991 444.774 178.486 446.784 186.822 C 451.92 208.552 457.246 230.237 462.76 251.874 C 464.225 257.615 469.423 282.867 473.564 284.724 C 476.297 278.206 480.652 259.071 482.565 251.504 L 497.644 192.732 C 500.485 181.389 504.046 164.666 507.771 154.025 z"/>
<path transform="translate(0,0)" fill="rgb(0,0,0)" d="M 965.993 83.1812 L 1002.7 83.2544 C 1004.25 126.71 1002.16 170.923 1003.15 214.452 C 1003.19 216.542 1003.62 218.714 1004.93 220.377 C 1007.98 220.401 1062.38 161.954 1070.49 154.018 L 1114.1 154.025 C 1092.17 179.655 1065.91 203.417 1042.82 229.971 L 1093.25 294.979 C 1102.06 306.041 1110.72 317.214 1119.24 328.497 C 1105.47 328.812 1090.47 329.391 1076.81 328.374 C 1070.22 327.882 1058.18 309.052 1053.89 303.346 L 1015.75 252.585 C 1011.99 256.382 1006.64 263.103 1003.04 267.358 L 1003.03 328.781 C 995.28 328.791 973.688 329.273 967.128 327.475 C 965.584 322.018 966.011 265.407 966.014 255.609 L 965.993 83.1812 z"/>
<path transform="translate(0,0)" fill="rgb(0,0,0)" d="M 1606.05 154.017 L 1647.06 154.082 C 1641.11 165.197 1625.24 185.633 1617.8 196.277 C 1607.78 210.613 1597.16 225.914 1586.69 239.841 C 1601.56 259.372 1632.26 304.014 1648.79 326.04 C 1648.79 326.779 1648.8 327.406 1648.8 327.922 L 1646.86 328.627 C 1633.48 328.705 1619.49 328.982 1606.16 328.527 C 1592.96 312.899 1578.82 286.086 1565.11 269.849 C 1556.38 279.539 1534.2 315.137 1524.32 328.671 L 1481.72 328.54 C 1487.04 318.665 1505.38 294.22 1512.51 284.301 C 1523.27 269.315 1532.87 254.156 1543.32 239.235 C 1529.7 220.955 1516.42 202.421 1503.49 183.643 C 1497.47 174.932 1489.21 161.816 1483.05 154.123 C 1497.7 153.702 1513.67 154.054 1528.41 154.098 C 1533.01 163.709 1559.73 201.904 1566.98 210.63 C 1573.31 204.549 1599.28 164.191 1606.05 154.017 z"/>
<path transform="translate(0,0)" fill="rgb(0,0,0)" d="M 935.575 150.385 C 936.706 150.078 943.372 149.933 944.969 149.875 L 944.977 187.07 C 943.817 187.046 942.657 187.032 941.497 187.027 C 926.354 186.968 910.229 189.66 899.096 200.756 C 893.503 206.276 889.488 213.192 887.468 220.786 C 884.032 233.572 885.499 245.682 885.062 258.568 C 884.265 282.052 885.133 305.147 885.085 328.677 L 848.065 328.544 L 848.082 316.5 L 846.931 154.15 C 856.223 152.282 873.756 152.813 883.971 152.852 C 883.924 158.028 882.844 173.056 886.649 176.343 C 908.413 157.81 905.346 154.555 935.575 150.385 z"/>
</g></svg></svg><svg x="149" y="384" width="229" height="257" xmlns="http://www.w3.org/2000/svg" style="display:block" preserveAspectRatio="none"><svg version="1.1" xmlns="http://www.w3.org/2000/svg" style="display: block;" width="229" height="257" viewBox="0.00 -0.07 1825.00 2048.14" preserveAspectRatio="none"><g id="svg-group-f9116c8c-5eaa-4839-9fa4-7b5fc6126a43">
<path transform="translate(0,0)" fill="rgba(0, 0, 0, 1)" d="M 875.126 0 L 949.732 0 C 955.827 9.03922 970.456 9.20904 980.389 12.6791 C 991.091 16.417 1008.27 20.7918 1017.88 26.0963 C 1044.83 40.9795 1083.24 70.6204 1100.95 96.2375 C 1135.78 146.619 1149.04 215.648 1136.24 275.445 C 1134.78 282.25 1129.81 292.75 1132.5 298.392 C 1151.6 315.24 1192.77 333.302 1215.97 346.934 C 1246.73 365.008 1278.12 383.026 1308.91 401.227 C 1340.82 420.096 1376.24 435.786 1407.3 456.623 C 1415.04 461.4 1424.31 466.516 1431.49 471.804 C 1515.06 380.247 1663.1 373.992 1753.94 456.883 C 1770.57 472.062 1788.46 498.935 1799.82 518.391 C 1809.37 534.918 1814.28 568.045 1825 577.455 L 1825 665.11 C 1814.8 677.447 1819.63 679.631 1814.41 692.781 C 1803.03 721.438 1791.31 748.46 1771 772.383 C 1751.06 795.876 1729.08 814.149 1701.8 829.635 C 1682.63 840.178 1658.26 840.354 1639.88 851.74 C 1638.86 852.372 1637.81 863.895 1637.84 865.795 C 1639.64 976.061 1634.81 1088.32 1638.08 1198.4 C 1648.66 1209.83 1657.18 1212.1 1671.39 1216.48 C 1742.76 1238.51 1796.9 1298.62 1816.56 1370.01 C 1818.35 1376.52 1819.39 1381.55 1825 1385.82 L 1825 1470.71 C 1815.52 1479.82 1810.19 1509.99 1804.1 1523.75 C 1767.55 1604.84 1686.81 1656.93 1597.86 1656.79 C 1560.67 1656.84 1509.49 1642.13 1476.8 1624.24 C 1465.32 1617.97 1439.93 1597.82 1429.29 1589.01 C 1416.33 1597.62 1400.38 1603.3 1387.93 1611.18 C 1345.29 1638.15 1295.47 1658.51 1252.79 1684.05 C 1223.08 1701.82 1150.69 1735.1 1130.85 1759.02 C 1133.78 1775.1 1137.41 1791.39 1138.63 1807.77 C 1142.2 1855.86 1129.85 1907.46 1102.56 1947.47 C 1096.53 1956.31 1089.68 1965.98 1082.9 1974.24 C 1076.79 1981.68 1068.05 1987.63 1061.22 1993.91 C 1041.95 2011.61 1024.73 2022.49 1000.45 2032.22 C 990.434 2036.23 969.242 2041.4 962.439 2048 L 862.745 2048 C 857.471 2041.01 837.915 2037.07 829.318 2033.77 C 727.176 1994.65 671.937 1896.63 687.523 1789.19 C 688.473 1782.64 693.003 1757.82 691.574 1756.47 C 666.182 1732.44 557.621 1675.04 531.887 1660.23 C 473.937 1626.88 471.024 1629.23 420.332 1597.18 C 400.756 1587.26 401.568 1585.49 385.444 1599.89 C 262.093 1710.02 57.5501 1658.65 13.2128 1495.52 C 9.89388 1483.31 10.0385 1458.31 0 1452.48 L 0 1407.63 C 1.81485 1406.51 4.98646 1404.66 5.75079 1402.68 C 11.1284 1388.76 10.0918 1368.37 16.3741 1354.65 C 26.6138 1332.28 38.2079 1308.92 53.2101 1289.43 C 79.6199 1255.12 111.724 1234.47 151.086 1217.84 C 165.998 1211.55 171.697 1213.72 183.419 1202.14 C 184.178 1181.35 183.667 1157.72 183.668 1136.75 L 183.668 1021.78 L 183.657 917.202 C 183.654 896.711 184.095 873.825 183.162 853.562 C 168.529 838.85 155.503 841.648 136.927 833.419 C 119.92 825.885 109.791 819.293 94.7668 808.641 C 54.7659 780.121 25.4723 737.747 13.3858 689.978 C 9.73702 675.557 10.826 646.462 0 639.43 L 0 614.715 C 12.2202 607.232 8.27776 588.828 11.6676 574.826 C 20.1733 539.69 34.3514 508.523 57.1746 480.346 C 95.4395 433.104 153.539 405.643 213.573 399.855 C 270.957 394.716 326.243 414.752 372.589 447.606 C 377.185 450.862 395.647 470.113 401.507 467.545 C 417.719 460.439 433.284 448.767 448.869 439.732 L 568.121 371.842 C 591.744 358.44 614.174 349.353 637.187 333.506 C 655.6 320.828 681.661 313.228 696.133 294.412 C 698.816 290.924 693.223 283.718 692.997 279.739 C 688.823 247.49 687.643 213.314 692.046 181.072 C 700.592 140.838 724.926 92.5675 754.818 64.0266 C 776.712 43.122 812.831 24.0515 840.798 13.106 C 852.388 8.57018 866.575 11.4087 875.126 0 z M 449.132 693.766 C 455.895 699.403 465.762 705.253 473.318 710.097 C 490.202 721.108 507.532 731.42 525.263 741.008 C 540.647 749.212 555.196 755.696 570.637 764.537 L 698.21 836.46 C 711.194 843.67 736.852 859.979 749.051 864.774 C 760.727 855.477 769.691 845.899 782.349 837.221 C 863.258 781.752 969.101 783.763 1048.56 840.909 C 1059.68 848.904 1070.8 857.795 1082.61 864.629 C 1085.16 866.08 1088.77 863.838 1091.75 862.504 C 1103.56 856.718 1113.23 849.479 1124.73 843.051 L 1217.3 791.772 L 1314.51 737.349 C 1337.76 724.483 1356.91 715.264 1379.38 700.782 C 1378.94 692.949 1372.44 672.561 1370.2 662.917 C 1361.7 626.337 1366.66 604.914 1372.9 569.011 C 1374.79 558.126 1367.25 559.132 1373.5 544.385 C 1355.34 531.984 1336.1 523.364 1316.79 512.369 L 1193.62 441.977 C 1173.62 430.618 1153.52 418.917 1133.4 407.761 C 1121.13 400.958 1097.23 385.14 1084.57 380.679 C 1076.43 386.184 1069.68 393.668 1062.18 400.065 C 972.108 476.915 841.724 473.876 756.598 390.486 C 753.002 386.964 748.428 383.304 743.75 381.187 C 732.823 384.495 714.297 395.498 703.501 401.445 L 625.372 445.483 C 585.112 467.969 544.31 489.823 504.25 512.566 C 491.61 519.741 462.026 536.841 451.734 546.024 C 449.04 552.921 459.818 603.097 460.391 617.115 C 461.638 647.601 452.557 665.791 449.132 693.766 z M 514.103 1208.22 C 531.593 1198.28 690.868 1107.65 691.599 1105.55 C 692.272 1103.62 692.072 1101.9 691.822 1099.92 C 690.503 1089.44 686.316 1078.87 684.405 1068.38 C 680.717 1048.12 681.123 1012.23 683.325 991.474 C 684.042 984.525 685.2 977.629 686.792 970.826 C 687.771 966.597 694.444 943.974 694.328 942.445 C 691.563 939.199 633.528 907.785 625.552 903.294 L 476.13 819.6 C 453.893 807.224 431.763 794.655 409.494 782.338 C 407.287 781.117 404.999 780.81 402.517 780.642 C 377.307 809.294 312.81 845.516 274.638 849.85 C 272.976 867.731 273.906 893.627 273.894 912.057 L 273.829 1024.96 L 273.91 1144.51 C 273.941 1161.45 273.092 1188.86 274.416 1204.96 C 289.467 1212.46 312.358 1215.98 332.041 1226.11 C 343.336 1231.98 354.312 1238.45 364.922 1245.48 C 372.996 1250.82 397.949 1269.7 404.541 1271.61 C 415.606 1267.58 427.999 1256.87 438.789 1250.79 C 463.154 1237.04 489.295 1220.87 514.103 1208.22 z M 1134.37 946.833 C 1143.04 986.299 1149.51 1010.76 1145.32 1052.91 C 1143.7 1069.27 1137.57 1088.47 1136.19 1102.6 C 1149.64 1116.81 1201.6 1142.97 1220.51 1153.51 L 1336.39 1219.11 C 1356.76 1230.8 1376.52 1244.04 1397.42 1255.42 C 1400.8 1257.35 1425.49 1272.97 1428.27 1271.71 C 1433.48 1269.32 1458.25 1246.19 1463.83 1242.24 C 1489.13 1224.34 1518.64 1213.93 1547.5 1204.31 C 1548.17 1177.7 1546.94 1145.72 1546.94 1118.43 L 1547 924.321 C 1546.93 900.486 1545.5 874.351 1546.11 851.145 C 1516.25 845.934 1478.26 827.633 1454.53 808.82 C 1445.35 801.539 1439.54 792.439 1429.29 786.058 C 1427.46 784.68 1427.25 783.883 1424.93 784.33 C 1419.86 785.306 1408.8 789.302 1404.89 792.281 C 1390.35 799.254 1370.4 811.806 1355.53 819.853 C 1318.49 839.898 1280.49 860.266 1244.36 881.86 C 1208.45 903.32 1167.97 922.625 1134.37 946.833 z M 1088.91 1188.68 L 1087.79 1189.47 C 1079.62 1195.34 1072.08 1203.58 1063.17 1210.49 C 1038.05 1229.99 990.277 1256.36 958.626 1257.33 C 957.467 1274.86 958.518 1294.16 958.813 1311.85 C 959.022 1333.84 959.078 1355.83 958.98 1377.81 C 958.959 1449.53 957.59 1526.94 959.629 1598.21 C 983.35 1603.56 1009.61 1616.56 1032.51 1629.22 C 1050.24 1639.02 1069.16 1657.97 1086.42 1669.44 C 1087.59 1670.22 1188.13 1613.07 1199.65 1608.47 C 1199.79 1608.41 1201.9 1607 1202.05 1606.9 C 1218.79 1597.24 1235.02 1589.35 1251.7 1580.13 L 1343.02 1528.46 C 1353.05 1522.8 1370.48 1514.35 1379.12 1508.99 C 1367.04 1468.13 1360.58 1433.95 1369.74 1391.51 C 1373.73 1373 1370.92 1373.14 1379.6 1354.59 C 1365.83 1344.26 1357.1 1340.78 1342.82 1332.44 C 1328.77 1324.23 1314.59 1315.99 1300.51 1307.79 C 1245.76 1275.19 1190.42 1243.59 1134.53 1213.01 C 1123.45 1206.9 1100.2 1191.39 1088.91 1188.68 z M 743.883 1187.12 C 731.915 1191.6 718.773 1199.51 707.431 1205.88 L 658.919 1233.41 L 522.859 1311.27 C 500.136 1324.52 473.094 1342.01 450.508 1354.28 L 450.57 1355.5 C 450.964 1362.3 452.918 1372.3 454.636 1379.03 C 463.976 1415.65 462.091 1453.25 452.708 1489.65 C 451.132 1495.75 450.057 1500.8 449.752 1507.13 C 507.775 1543.26 567.076 1577.3 627.541 1609.19 L 690.458 1645.4 C 700.455 1651.15 728.345 1669.96 741.031 1669 C 745.261 1668.69 755.368 1655.36 758.835 1652.09 C 767.443 1644.75 778.426 1636.65 787.845 1630.48 C 812.729 1614.16 838.309 1606.2 865.881 1596.43 C 867.623 1584.48 866.647 1563.87 866.397 1551.12 C 865.963 1531.73 865.789 1512.33 865.876 1492.93 L 867.155 1256.21 C 830.457 1244.51 791.013 1231.93 762.005 1204.17 C 758.762 1201.07 747.295 1187.88 743.883 1187.12 z"/>
<path transform="translate(0,0)" fill="rgba(0, 0, 0, 1)" fill-opacity="0.0313725" d="M 1404.89 792.281 C 1408.8 789.302 1419.86 785.306 1424.93 784.33 C 1427.25 783.883 1427.46 784.68 1429.29 786.058 L 1428.35 787.108 C 1427.28 788.32 1426.88 788.826 1425.97 790.107 C 1418.3 794.156 1413.37 791.726 1404.89 792.281 z"/>
</g></svg></svg></svg>